**ABCDEFGHIJKLMNOPQRSTUVWXYZabcdefghijklmnopqrstuvwxyz**************************
**PARASOLID !"#$%&'()*+,-./:;<=>?@[\]^_`{|}~0123456789**************************
**PART1;
MC=unknown;
MC_MODEL=unknown;
MC_ID=unknown;
OS=unknown;
OS_RELEASE=unknown;
FRU=Parasolid 37.0.209;
APPL=Onshape;
SITE=unknown;
USER=unknown;
FORMAT=text;
GUISE=transmit;
KEY=BTGapi::writeModels_.xmt;
FILE=BTGapi::writeModels_.xmt;
DATE=2025-08-03T19:15:29 (UTC);
**PART2;
SCH=SCH_3700209_36001;
USFLD_SIZE=0;
**PART3;
**END_OF_HEADER*****************************************************************
T51 : TRANSMIT FILE created by modeller version 370020923 SCH_3700209_36001_1300
6231 0 12 36 CCCI7 lattice222 0 CCCI4 mesh1006 0 I8 polyline1008 0 CCCCCCCDI5 ow
ner1040 0 CCCI16 boundary_lattice222 0 CCCI13 boundary_mesh1006 0 I17 boundary_p
olyline1008 0 CCCA16 index_map_offset0 0 1 dA9 index_map82 0 A17 node_id_index_m
ap82 0 A20 schema_embedding_map82 0 A5 child12 0 A14 lowest_node_id0 0 1 dA16 me
sh_offset_data206 0 Z1 1609 2 3 0 0 0 0 0 0 0 1e3 1e-8 0 4 5 1 0 1 2 6 0 7 8 9 0
 0 10 11 12 0 0 0 0 0 0 0 81 255 1 2 1585 13 1 14 0 0 0 15 70 11 CI9 list_type0
 0 1 uI10 notransmit0 0 1 lCCCDCCDI12 finger_index0 0 1 dI12 finger_block1012 0
 CZ3 0 4 T1 0 0 5 20 1 16 16 13 255 6 253 0 1 0 17 0 0 18 0 51 255 7 1307 0 19 2
0 0 0 +.032 -.04 -.01 1 0 0 .01 0 0 -1 31 255 8 1480 0 21 22 0 0 +.005 -.025 -.0
21 -1 0 0 0 0 1 .0025 29 255 9 1196 0 12 23 0 .005 -.05 -.01 19 9 CCCCCCI5 frame
230 0 CA5 owner12 0 Z10 88 0 1 18 0 24 0 V0 16 255 11 1212 25 ?26 0 27 22 0 0 1
 18 255 12 1193 28 29 0 30 9 ?1 81 1 28 1348 31 12 0 0 32 33 34 17 255 29 0 35 3
6 37 12 38 39 0 40 +18 30 1184 41 42 12 43 23 ?1 81 1 41 1344 31 30 0 0 44 45 46
 17 42 0 47 48 49 30 50 51 0 52 +18 43 1170 32 53 30 54 55 ?1 29 23 1187 0 30 55
 9 .005 0 -.01 29 55 1173 0 43 56 23 0 -.05 -.01 29 56 1169 0 54 57 55 0 0 -.01
 18 54 1166 44 58 43 59 56 ?1 29 57 1155 0 59 60 56 .005 -.01 0 18 59 1152 61 62
 54 63 57 ?1 29 60 1151 0 63 64 57 .005 -.04 0 18 63 1148 65 66 59 67 60 ?1 29 6
4 1147 0 67 68 60 260208521396521e-32 -.01 0 18 67 1144 69 70 63 71 64 ?1 29 68
 1143 0 71 72 64 260208521396521e-32 -.04 0 18 71 1140 45 73 67 74 68 ?1 29 72 1
129 0 74 75 68 .064 -.05 -.01 18 74 1126 76 77 71 78 72 ?1 29 75 1120 0 78 79 72
 .064 0 -.01 18 78 1117 80 81 74 82 75 ?1 29 79 1106 0 82 83 75 .059 -.05 -.01 1
8 82 1103 84 85 78 86 79 ?1 29 83 1102 0 86 87 79 .059 0 -.01 18 86 1099 88 89 8
2 90 83 ?1 29 87 1088 0 90 91 83 .064 -.01 0 18 90 1085 92 93 86 94 87 ?1 29 91
 1084 0 94 95 87 .064 -.04 0 18 94 1081 96 97 90 98 91 ?1 29 95 1080 0 98 99 91
 .059 -.01 433680868994202e-32 18 98 1077 100 101 94 102 95 ?1 29 99 1076 0 102
 103 95 .059 -.04 433680868994202e-32 18 102 1073 104 105 98 106 99 ?1 29 103 84
5 0 106 107 99 .005 -.05 -.035 18 106 842 108 109 102 110 103 ?1 29 107 841 0 11
0 111 103 .02 -.05 -.05 18 110 838 112 113 106 114 107 ?1 29 111 832 0 114 115 1
07 0 -.05 -.045 18 114 829 116 117 110 118 111 ?1 29 115 823 0 118 119 111 .005
 0 -.035 18 118 820 120 121 114 122 115 ?1 29 119 819 0 122 123 115 0 0 -.045 18
 122 816 124 125 118 126 119 ?1 29 123 815 0 126 127 119 .02 0 -.05 18 126 812 1
28 129 122 130 123 ?1 29 127 806 0 130 131 123 .044 -.05 -.05 18 130 803 132 133
 126 134 127 ?1 29 131 802 0 134 135 127 .059 -.05 -.035 18 134 799 136 137 130
 138 131 ?1 29 135 788 0 138 139 131 .015 -.05 -.06 18 138 785 140 141 134 142 1
35 ?1 29 139 784 0 142 143 135 .049 -.05 -.06 18 142 781 144 145 138 146 139 ?1
 29 143 780 0 146 147 139 .015 0 -.06 18 146 777 148 149 142 150 143 ?1 29 147 7
71 0 150 151 143 .059 0 -.035 18 150 768 152 153 146 154 147 ?1 29 151 767 0 154
 155 147 .044 0 -.05 18 154 764 156 157 150 158 151 ?1 29 155 763 0 158 159 151
 .049 0 -.06 18 158 760 160 161 154 162 155 ?1 29 159 754 0 162 163 155 .064 -.0
5 -.045 18 162 751 164 165 158 166 159 ?1 29 163 750 0 166 167 159 .064 0 -.045
 18 166 747 168 169 162 170 163 ?1 29 167 432 0 170 171 163 .0205435607626104 -.
05 -.05 18 170 428 172 173 166 174 167 ?1 29 171 422 0 174 175 167 .043456439237
3896 -.05 -.06 18 174 418 176 177 170 178 171 ?1 29 175 417 0 178 179 171 .02054
35607626104 -.05 -.06 18 178 413 180 181 174 182 175 ?1 29 179 385 0 182 183 175
 .0434564392373896 0 -.05 18 182 381 184 185 178 186 179 ?1 29 183 676 0 186 187
 179 .0434564392373896 -.05 -.05 18 186 615 188 189 182 190 183 ?1 29 187 680 0
 190 191 183 .0205435607626104 0 -.05 18 190 609 192 193 186 194 187 ?1 29 191 6
84 0 194 195 187 .0434564392373896 0 -.06 18 194 610 196 197 190 198 191 ?1 29 1
95 685 0 198 0 191 .0205435607626104 0 -.06 18 198 606 199 200 194 0 195 ?1 81 1
 199 725 31 198 0 0 201 196 202 17 200 0 203 204 205 198 206 207 0 208 +15 255 2
03 231 0 209 210 0 17 204 0 203 209 200 194 208 211 0 212 +17 205 0 203 200 213
 146 214 215 0 206 +17 206 0 47 216 217 146 200 207 0 0 -16 207 778 218 ?200 219
 220 221 220 220 1 17 208 0 222 193 197 198 204 211 0 217 -15 222 628 0 193 223
 0 17 193 0 222 224 208 190 217 225 0 226 -17 197 0 222 208 224 194 227 228 0 20
4 -16 211 574 229 ?204 230 231 232 231 231 1 17 217 0 47 206 233 198 193 225 0 0
 +15 47 402 0 49 234 0 17 233 0 47 217 129 190 235 236 0 0 -16 225 407 237 ?217
 238 228 239 0 0 1 81 1 237 733 31 225 0 0 172 240 241 16 238 755 242 ?243 244 2
25 245 0 0 1 16 228 401 240 ?227 225 246 247 0 0 1 30 255 239 409 0 225 247 245
 0 +.0205435607626104 0 -.05 0 0 -1 30 247 403 0 228 248 239 0 -.043456439237389
6 0 -.05 0 0 -1 30 245 757 0 238 239 249 0 +.064 -.05 -.045 0 1 0 31 249 774 0 2
44 245 250 0 -.049 0 -.045 0 -1 0 0 0 -1 .015 16 244 772 251 ?161 215 238 249 0
 0 1 30 250 791 0 215 249 252 0 +.015 -.05 -.06 0 1 0 16 215 789 253 ?205 254 24
4 250 0 0 1 30 252 796 0 254 250 255 0 -.049 -.05 -.06 0 1 0 16 254 794 256 ?145
 257 215 252 0 0 1 31 255 809 0 257 252 258 0 +.049 -.05 -.045 0 -1 0 0 0 -1 .01
5 16 257 807 259 ?165 260 254 255 0 0 1 31 258 826 0 260 255 261 0 -.015 0 -.045
 0 -1 0 0 0 -1 .015 16 260 824 262 ?216 263 257 258 0 0 1 30 261 835 0 263 258 2
64 0 -0 -.05 -.045 0 1 0 16 263 833 265 ?266 267 260 261 0 0 1 31 264 848 0 267
 261 268 0 +.015 -.05 -.045 0 -1 0 0 0 -1 .015 16 267 846 269 ?141 270 263 264 0
 0 1 30 268 853 0 270 264 271 0 -.02 -.05 -.05 0 1 0 16 270 851 272 ?113 273 267
 268 0 0 1 30 271 858 0 273 268 274 0 +.044 0 -.05 0 1 0 16 273 856 275 ?276 277
 270 271 0 0 1 30 274 863 0 277 271 278 0 -.059 -.05 -.035 0 1 0 16 277 861 279
 ?280 281 273 274 0 0 1 30 278 868 0 281 274 282 0 +.005 0 -.035 0 1 0 16 281 86
6 283 ?284 285 277 278 0 0 1 31 282 887 0 285 278 286 0 +.044 0 -.035 0 -1 0 0 0
 -1 .015 16 285 871 287 ?288 289 281 282 0 0 1 31 286 888 0 289 282 290 0 -.044
 -.05 -.035 0 -1 0 0 0 -1 .015 16 289 875 291 ?133 292 285 286 0 0 1 31 290 889
 0 292 286 293 0 +.02 0 -.035 0 -1 0 0 0 -1 .015 16 292 879 294 ?129 295 289 290
 0 0 1 31 293 890 0 295 290 296 0 -.02 -.05 -.035 0 -1 0 0 0 -1 .015 16 295 883
 297 ?109 298 292 293 0 0 1 30 296 1091 0 298 293 299 0 -.064 -.04 0 -1 0 0 16 2
98 1089 300 ?97 301 295 296 0 0 1 30 299 1096 0 301 296 302 0 +.0615 -.01 0 -1 0
 0 16 301 1094 33 ?303 304 298 299 0 0 1 31 302 1109 0 304 299 305 0 -.059 -.04
 -.01 1 0 1387778780781446e-31 1387778780781446e-31 0 -1 .01 16 304 1107 306 ?10
5 307 301 302 0 0 1 31 305 1114 0 307 302 308 0 -.059 -.01 -.01 1 0 138777878078
1446e-31 1387778780781446e-31 0 -1 .01 16 307 1112 309 ?89 310 304 305 0 0 1 30
 308 1123 0 310 305 311 0 -.032 0 -.01 -1 0 0 16 310 1121 312 ?81 313 307 308 0
 0 1 31 311 1132 0 313 308 314 0 -.064 -.04 -.01 -1 0 0 0 0 1 .01 16 313 1130 31
5 ?77 316 310 311 0 0 1 31 314 1137 0 316 311 317 0 -.064 -.01 -.01 -1 0 0 0 0 1
 .01 16 316 1135 318 ?93 319 313 314 0 0 1 30 317 1158 0 319 314 320 0 -.005 -.0
4 0 -1 0 0 16 319 1156 321 ?66 322 316 317 0 0 1 30 320 1163 0 322 317 323 0 +.0
025 -.01 0 -1 0 0 16 322 1161 324 ?325 326 319 320 0 0 1 31 323 1176 0 326 320 3
27 0 -0 -.04 -.01 1 0 0 0 0 -1 .01 16 326 1174 328 ?73 329 322 323 0 0 1 31 327
 1181 0 329 323 330 0 -0 -.01 -.01 1 0 0 0 0 -1 .01 16 329 1179 331 ?58 51 326 3
27 0 0 1 30 330 1190 0 51 327 332 0 -.032 0 -.01 -1 0 0 16 51 1188 333 ?42 39 32
9 330 0 0 1 31 332 1199 0 39 330 334 0 -.005 -.04 -.01 -1 0 0 0 0 1 .01 16 39 11
97 335 ?29 336 51 332 0 0 1 31 334 1204 0 336 332 337 0 -.005 -.01 -.01 -1 0 0 0
 0 1 .01 16 336 1202 338 ?62 27 39 334 0 0 1 30 337 1209 0 27 334 22 0 +.059 -.0
5 -.01 -1 0 0 16 27 1207 339 ?340 11 336 337 0 0 1 30 22 1214 0 11 337 8 0 +0 -.
05 -.01 -1 0 0 81 1 339 1356 31 27 0 0 306 324 341 17 340 0 342 137 343 82 344 2
7 0 345 +15 342 434 0 343 346 0 17 137 0 342 133 340 134 345 347 0 280 +17 343 0
 342 340 165 74 348 349 0 344 +17 344 0 350 351 85 74 340 27 0 0 -17 345 0 352 1
05 280 82 137 347 0 0 -15 352 225 0 353 354 0 17 105 0 352 353 345 102 85 304 0
 355 +17 280 0 352 345 153 134 356 277 0 357 +16 347 1104 358 ?137 359 349 360 0
 0 1 81 1 358 1374 31 347 0 0 361 362 363 16 359 429 364 ?365 366 347 367 366 36
6 1 16 349 752 368 ?343 347 369 370 0 0 1 30 360 34 0 347 370 367 0 +.059 -.05 -
.025 1387778780781446e-31 0 -1 30 370 24 0 349 371 360 0 +.064 -.05 -.03 0 0 1 3
0 367 39 0 366 360 372 0 +.032 -.05 -.05 -1 0 -1284980352575412e-31 16 366 804 3
73 ?189 374 359 367 359 359 1 30 372 44 0 374 367 375 0 +.005 -.05 -.025 0 0 1 1
6 374 843 376 ?40 377 366 372 0 0 1 30 375 203 0 378 372 221 0 +0 0 -.03 0 0 -1
 16 378 1167 379 ?125 220 380 375 0 0 1 30 221 202 0 207 375 381 0 +.032 0 -.06
 1 0 0 30 381 201 0 219 221 382 0 +.064 0 -.03 0 0 1 16 219 748 383 ?384 385 207
 381 0 0 1 30 382 199 0 385 381 386 0 +.059 0 -.025 1387778780781446e-31 0 -1 16
 385 1100 361 ?153 236 219 382 0 0 1 30 386 198 0 387 382 388 0 +.032 0 -.05 -1
 0 -1284980352575412e-31 16 387 765 389 ?185 390 236 386 236 236 1 30 388 197 0
 390 386 391 0 +.005 0 -.025 0 0 1 16 390 821 362 ?52 392 387 388 0 0 1 30 391 2
45 0 377 388 393 0 +.005 -.05 0 0 1 0 16 377 1149 394 ?395 396 374 391 0 0 1 30
 393 248 0 396 391 397 0 +.059 -.05 433680868994202e-32 0 1 0 16 396 1074 398 ?3
53 399 377 393 0 0 1 30 397 249 0 399 393 248 0 +.064 -.05 0 0 1 0 16 399 1082 4
00 ?401 246 396 397 0 0 1 30 248 252 0 246 397 247 0 +260208521396521e-32 -.05 0
 0 1 0 16 246 1141 402 ?403 228 399 248 0 0 1 81 1 402 1365 31 246 0 0 25 400 40
4 17 403 0 405 58 73 67 406 246 0 0 +15 405 233 0 403 407 0 17 58 0 405 125 403
 54 70 329 0 49 +17 73 0 405 403 408 71 53 326 0 406 +17 406 0 409 66 325 71 403
 246 0 410 -15 409 235 0 395 411 0 17 66 0 409 395 406 63 410 319 0 37 +17 325 0
 409 406 395 67 412 322 0 403 +17 410 0 413 53 38 71 66 319 0 0 -15 413 1296 0 3
8 19 0 17 53 0 413 414 410 43 73 326 0 26 -17 38 0 413 410 414 63 29 39 0 0 -17
 414 0 413 38 53 12 26 11 0 0 -17 26 0 415 117 40 43 414 11 0 408 +15 415 439 0
 40 17 0 17 117 0 415 141 26 114 408 392 0 266 +17 40 0 415 26 109 12 36 374 0 4
14 +17 408 0 405 73 266 43 117 392 0 0 -17 266 0 405 408 125 114 416 263 0 417 +
16 392 1171 418 ?117 419 390 420 0 0 1 81 1 418 1370 31 392 0 0 379 383 421 16 4
19 419 422 ?423 369 392 371 369 369 1 30 420 14 0 392 424 371 0 +0 -.05 -.03 0 0
 -1 30 424 670 0 380 425 420 0 +.0205435607626104 -.05 -.05 0 0 -1 30 371 19 0 3
69 420 370 0 +.032 -.05 -.06 1 0 0 16 369 786 426 ?181 349 419 371 419 419 1 81
 1 426 1049 31 369 0 0 427 422 428 17 181 0 415 173 141 178 213 369 0 429 +17 17
3 0 415 365 181 170 429 380 0 430 -17 141 0 415 181 117 138 417 267 0 213 +17 21
3 0 203 205 431 138 181 369 0 214 -17 429 0 432 433 434 178 173 380 0 431 +15 43
2 656 0 434 435 0 17 433 0 432 436 429 174 431 231 0 0 -17 434 0 432 429 436 170
 437 230 0 0 +16 380 593 438 ?429 378 439 424 0 0 1 17 431 0 203 213 440 178 433
 231 0 0 +17 440 0 203 431 145 174 423 419 0 433 -16 231 599 441 ?431 211 442 23
2 211 211 1 81 1 441 740 31 231 0 0 229 443 444 16 442 1515 445 ?446 231 447 448
 0 0 1 31 232 672 0 211 449 425 0 +.032 -.025 -.06 0 0 -1 -1 0 0 .0275 31 449 67
3 0 230 448 232 0 +.032 -.025 -.05 0 0 -1 -1 0 0 .0275 30 425 671 0 439 232 424
 0 -.0434564392373896 -.05 -.05 0 0 -1 16 439 596 450 ?436 380 451 425 0 0 1 81
 1 450 736 31 439 0 0 438 452 453 17 436 0 432 434 433 186 177 439 0 437 +16 451
 535 443 ?224 439 230 449 230 230 1 81 1 443 741 31 451 0 0 441 454 455 17 224 0
 222 197 193 182 226 451 0 227 +16 230 590 454 ?434 451 211 449 451 451 1 81 1 4
54 742 31 230 0 0 443 124 456 80 7 CCCCCDI12 legal_owners0 17 1 lCZ1 31 457 458
 9000 0 0 0 0 3 6 0 0 0 FFTFTFTTFFFFFFFFF1 81 1 124 1007 31 122 0 0 454 116 459
 82 255 3 456 10 17 1 81 1 116 1008 31 114 0 0 124 148 460 82 3 459 11 0 0 81 1
 148 1009 31 146 0 0 116 140 461 82 3 460 11 1 0 81 1 140 1010 31 138 0 0 148 16
8 462 82 3 461 11 2 0 81 1 168 1011 31 166 0 0 140 164 463 82 3 462 11 3 0 81 1
 164 1012 31 162 0 0 168 160 464 82 3 463 11 4 0 81 1 160 1013 31 158 0 0 164 14
4 465 82 3 464 11 5 0 81 1 144 1014 31 142 0 0 160 152 466 82 3 465 11 6 0 81 1
 152 1015 31 150 0 0 144 136 467 82 3 466 11 7 0 81 1 136 1016 31 134 0 0 152 12
0 468 82 3 467 11 8 0 81 1 120 1017 31 118 0 0 136 108 469 82 3 468 11 9 0 81 1
 108 1018 31 106 0 0 120 156 470 82 3 469 11 10 0 81 1 156 1019 31 154 0 0 108 1
32 471 82 3 470 11 11 0 81 1 132 1020 31 130 0 0 156 128 472 82 3 471 11 12 0 81
 1 128 1021 31 126 0 0 132 112 473 82 3 472 11 13 0 81 1 112 1022 31 110 0 0 128
 265 474 82 3 473 11 14 0 81 1 265 1023 31 263 0 0 112 253 475 82 3 474 11 15 0
 81 1 253 1024 31 215 0 0 265 262 476 82 3 475 11 0 1 81 1 262 1025 31 260 0 0 2
53 269 477 82 3 476 11 1 1 81 1 269 1026 31 267 0 0 262 242 478 82 3 477 11 2 1
 81 1 242 1027 31 238 0 0 269 256 479 82 3 478 11 3 1 81 1 256 1028 31 254 0 0 2
42 251 480 82 3 479 11 4 1 81 1 251 1029 31 244 0 0 256 259 481 82 3 480 11 5 1
 81 1 259 1030 31 257 0 0 251 279 482 82 3 481 11 6 1 81 1 279 1031 31 277 0 0 2
59 283 483 82 3 482 11 7 1 81 1 283 1032 31 281 0 0 279 275 484 82 3 483 11 8 1
 81 1 275 1033 31 273 0 0 283 287 485 82 3 484 11 9 1 81 1 287 1034 31 285 0 0 2
75 291 486 82 3 485 11 10 1 81 1 291 1035 31 289 0 0 287 272 487 82 3 486 11 11
 1 81 1 272 1036 31 270 0 0 291 294 488 82 3 487 11 12 1 81 1 294 1037 31 292 0
 0 272 297 489 82 3 488 11 13 1 81 1 297 1038 31 295 0 0 294 218 490 82 3 489 11
 14 1 81 1 218 1047 31 207 0 0 297 427 491 82 3 490 11 15 1 81 1 427 1048 31 220
 0 0 218 426 492 82 3 491 11 24 1 16 220 397 427 ?209 207 378 221 207 207 1 82 3
 492 11 25 1 17 209 0 203 145 204 158 212 220 0 493 +17 145 0 203 440 209 142 49
3 254 0 423 +17 212 0 494 227 161 194 209 220 0 0 -17 493 0 495 169 496 158 145
 254 0 0 -15 495 907 0 496 497 0 17 169 0 495 498 493 166 161 244 0 243 -17 496
 0 495 493 498 142 165 257 0 0 -17 498 0 495 496 169 162 243 238 0 0 -17 165 0 3
42 343 423 162 496 257 0 348 +17 423 0 342 165 177 142 440 419 0 496 +17 348 0 4
99 243 77 162 343 349 0 498 -15 499 229 0 384 500 0 17 243 0 499 384 348 166 498
 238 0 501 +17 77 0 499 348 502 74 351 313 0 343 +17 502 0 499 77 93 94 401 399
 0 351 -17 351 0 350 503 344 94 77 313 0 0 -15 350 1275 0 351 504 0 17 503 0 350
 85 351 102 97 298 0 0 -17 85 0 350 344 503 82 105 304 0 340 -17 97 0 505 401 35
5 94 503 298 0 502 +15 505 227 0 401 506 0 17 401 0 505 303 97 90 502 399 0 507
 +17 355 0 505 97 303 102 353 396 0 503 -17 303 0 505 355 401 98 507 301 0 353 +
17 353 0 352 89 105 98 355 396 0 0 +17 89 0 352 153 353 86 101 307 0 508 +17 153
 0 352 280 89 150 508 385 0 288 +17 101 0 509 507 510 98 89 307 0 303 -17 508 0
 494 81 288 86 153 385 0 510 -15 494 131 0 508 511 0 17 81 0 494 501 508 78 510
 310 0 384 +17 288 0 494 508 512 150 157 285 0 356 +17 510 0 509 101 513 86 81 3
10 0 0 -15 509 1233 0 513 514 0 17 513 0 509 510 507 78 93 316 0 0 -17 507 0 509
 513 101 90 303 301 0 0 -17 93 0 499 502 384 90 513 316 0 401 +17 384 0 499 93 2
43 78 501 219 0 513 +17 501 0 494 161 81 166 384 219 0 0 -17 161 0 494 212 501 1
58 169 244 0 209 +14 255 514 1232 515 ?516 517 509 6 518 +0 0 516 517 24 81 1 51
5 1604 519 514 520 0 521 522 523 14 516 1253 522 ?504 514 524 6 525 +0 0 504 514
 24 14 517 969 521 ?514 526 527 6 528 -0 0 514 526 24 51 518 1244 0 514 528 525
 0 +.0615 -.01 -.01 -1 0 0 .01 0 0 1 13 24 89 0 0 0 0 0 0 10 17 14 17 435 529 ?2
34 0 415 6 530 +346 346 234 0 24 81 1 529 1586 519 17 531 0 0 532 533 14 234 404
 532 ?411 17 47 6 534 -511 511 411 17 24 50 255 530 3 0 346 535 534 0 +.032 -.05
 -.03 0 -1 0 1 0 0 14 346 1 536 ?511 537 342 6 530 +17 17 511 537 24 81 1 536 15
96 519 346 538 0 539 540 541 14 511 120 540 ?223 346 494 6 534 -234 234 223 346
 24 14 537 222 539 ?346 542 543 6 544 -0 0 346 542 24 81 1 539 1595 519 537 545
 0 546 536 547 14 542 224 546 ?537 354 548 6 549 -0 0 537 354 24 15 543 1478 0 5
50 537 35 50 544 237 0 537 534 549 0 +.005 -.05 -.025 -1 0 0 0 0 1 50 534 196 0
 511 530 544 0 +.032 0 -.03 0 -1 0 1 0 0 50 549 238 0 542 544 551 0 +.032 -.05 -
.05 1284980352575412e-31 0 -1 -1 0 -1284980352575412e-31 50 551 239 0 354 549 55
2 0 +.059 -.05 -.025 1 0 1387778780781446e-31 1387778780781446e-31 0 -1 14 354 2
26 553 ?542 506 554 6 551 -0 0 542 506 24 50 552 240 0 506 551 555 0 +.0615 -.05
 0 0 0 -1 -1 0 0 14 506 228 556 ?354 500 505 6 552 -0 0 354 500 24 50 555 241 0
 500 552 557 0 +.064 -.05 -.03 -1 0 0 0 0 1 14 500 230 558 ?506 210 559 6 555 -0
 0 506 210 24 50 557 242 0 210 555 560 0 +.032 -.05 -.06 0 0 1 1 0 0 14 210 232
 561 ?500 407 203 6 557 -0 0 500 407 24 50 560 243 0 407 557 562 0 +0 -.05 -.03
 1 0 0 0 0 -1 14 407 234 563 ?210 411 564 6 560 -0 0 210 411 24 50 562 244 0 411
 560 565 0 +.0025 -.05 0 0 0 -1 -1 0 0 14 411 236 566 ?407 234 409 6 562 -0 0 40
7 234 24 51 565 918 0 497 562 567 0 +.049 -.05 -.045 0 1 0 .015 0 0 1 14 497 906
 568 ?569 435 495 6 565 +0 0 569 435 24 51 567 939 0 569 565 570 0 +.015 -.05 -.
045 0 1 0 .015 0 0 1 14 569 927 571 ?526 497 572 6 567 +0 0 526 497 24 51 570 96
0 0 526 567 528 0 +.044 -.05 -.035 0 -1 0 .015 0 0 -1 14 526 948 573 ?517 569 57
4 6 570 -0 0 517 569 24 51 528 981 0 517 570 518 0 +.02 -.05 -.035 0 -1 0 .015 0
 0 -1 81 1 573 1602 519 526 575 0 571 521 576 15 574 949 0 357 526 0 17 357 0 57
4 356 577 134 133 289 0 0 -17 356 0 574 157 357 150 280 277 0 0 -17 577 0 574 35
7 157 130 276 273 0 0 -17 133 0 342 189 137 130 357 289 0 578 +17 189 0 342 177
 133 186 578 366 0 436 +17 578 0 548 276 437 130 189 366 0 577 -15 548 223 0 578
 542 0 17 276 0 548 185 578 154 577 273 0 512 +17 437 0 548 578 430 186 434 230
 0 0 -17 430 0 548 437 113 170 365 359 0 434 -17 113 0 548 430 235 110 579 270 0
 365 +17 365 0 415 109 173 110 430 359 0 580 +17 109 0 415 40 365 106 580 295 0
 36 +17 580 0 527 579 581 110 109 295 0 0 -15 527 970 0 580 517 0 17 579 0 527 1
21 580 126 113 270 0 0 -17 581 0 527 580 121 106 284 281 0 0 -17 121 0 527 581 5
79 118 129 292 0 284 -17 284 0 35 52 36 118 581 281 0 48 +15 35 221 0 52 537 0 1
7 52 0 35 62 284 30 48 390 0 582 +17 36 0 35 284 29 106 40 374 0 581 -17 48 0 47
 129 42 118 52 390 0 0 -17 129 0 47 233 48 126 121 292 0 235 +17 235 0 548 113 2
26 126 233 236 0 579 +17 226 0 548 235 185 190 224 451 0 233 -16 236 387 583 ?23
5 387 385 386 387 387 1 81 1 583 1052 31 236 0 0 389 373 584 81 1 389 1051 31 38
7 0 0 422 583 585 81 1 373 1053 31 366 0 0 583 364 586 82 3 584 11 29 1 81 1 364
 1054 31 359 0 0 373 587 588 82 3 586 11 30 1 81 1 587 1055 31 569 0 571 364 589
 590 82 3 588 11 31 1 81 1 571 1601 519 569 587 0 568 573 591 81 1 589 1056 31 4
97 0 568 587 575 592 82 3 590 11 0 2 81 1 568 1600 519 497 589 0 593 571 594 81
 1 575 1057 31 526 0 573 589 595 596 82 3 592 11 1 2 81 1 595 1058 31 517 0 521
 575 597 598 82 3 596 11 2 2 81 1 521 1603 519 517 595 0 573 515 599 81 1 597 10
63 31 210 0 561 595 600 601 82 3 598 11 3 2 81 1 561 1590 519 210 597 0 563 558
 602 81 1 600 1064 31 542 0 546 597 92 603 82 3 601 11 8 2 81 1 546 1594 519 542
 600 0 553 539 604 81 1 92 1333 31 90 0 0 600 100 605 82 3 603 11 9 2 81 1 100 1
334 31 98 0 0 92 80 606 82 3 605 12 0 0 81 1 80 1335 31 78 0 0 100 88 607 82 3 6
06 12 1 0 81 1 88 1336 31 86 0 0 80 96 608 82 3 607 12 2 0 81 1 96 1337 31 94 0
 0 88 104 609 82 3 608 12 3 0 81 1 104 1338 31 102 0 0 96 76 610 82 3 609 12 4 0
 81 1 76 1339 31 74 0 0 104 84 611 82 3 610 12 5 0 81 1 84 1340 31 82 0 0 76 69
 612 82 3 611 12 6 0 81 1 69 1341 31 67 0 0 84 61 613 82 3 612 12 7 0 81 1 61 13
42 31 59 0 0 69 44 614 82 3 613 12 8 0 81 1 44 1343 31 54 0 0 61 41 615 82 3 614
 12 9 0 82 3 615 12 10 0 80 1 519 0 616 8001 0 0 0 0 3 5 0 0 0 FFFFTFTFFFFFFFFFF
2 81 1 553 1593 519 354 617 0 556 546 618 83 255 3 604 .615686274509804 .8117647
05882353 .929411764705882 81 1 617 1579 31 354 0 553 619 545 620 81 1 556 1592 5
19 506 621 0 558 553 622 83 3 618 .615686274509804 .811764705882353 .92941176470
5882 81 1 621 1381 31 506 0 556 623 624 625 81 1 558 1591 519 500 619 0 561 556
 626 83 3 622 .615686274509804 .811764705882353 .929411764705882 81 1 619 1578 3
1 500 0 558 627 617 628 83 3 626 .615686274509804 .811764705882353 .929411764705
882 81 1 627 1577 31 407 0 563 629 619 630 82 3 628 17 1 2 81 1 563 1589 519 407
 627 0 566 561 631 81 1 629 1576 31 21 0 0 632 627 633 82 3 630 17 0 2 16 21 152
1 629 ?550 447 634 8 0 0 1 81 1 632 1575 31 447 0 0 445 629 635 82 3 633 17 3 1
 16 447 1512 632 ?636 442 21 637 0 0 1 81 1 445 1574 31 442 0 0 638 632 639 82 3
 635 17 2 1 81 1 638 1573 31 634 0 0 538 445 640 82 3 639 17 1 1 16 634 1524 638
 ?641 21 0 642 0 0 1 81 1 538 1390 31 346 0 536 531 638 643 82 3 640 17 0 1 81 1
 531 1389 31 17 0 529 644 538 645 82 3 643 12 13 2 81 1 644 1388 31 511 0 540 64
6 531 647 82 3 645 12 12 2 81 1 540 1597 519 511 644 0 536 648 649 81 1 646 1387
 31 234 0 532 624 644 650 82 3 647 12 11 2 81 1 532 1587 519 234 646 0 529 566 6
51 81 1 624 1382 31 411 0 566 621 646 652 82 3 650 12 10 2 81 1 566 1588 519 411
 624 0 532 563 653 82 3 652 12 5 2 83 3 653 .615686274509804 .811764705882353 .9
29411764705882 83 3 651 .615686274509804 .811764705882353 .929411764705882 81 1
 648 1598 519 223 452 0 540 593 654 83 3 649 .615686274509804 .811764705882353 .
929411764705882 14 223 625 648 ?435 511 222 6 535 +435 435 435 511 24 81 1 452 7
37 31 223 0 648 450 655 656 81 1 593 1599 519 435 655 0 648 568 657 83 3 654 .61
5686274509804 .811764705882353 .929411764705882 14 435 653 593 ?497 223 432 6 53
5 +223 223 497 223 24 81 1 655 738 31 435 0 593 452 229 658 83 3 657 .6156862745
09804 .811764705882353 .929411764705882 81 1 229 739 31 211 0 0 655 441 659 82 3
 658 10 7 2 82 3 659 10 14 1 51 535 667 0 435 660 530 0 +.032 -.025 -.05 0 0 -1
 .0275 -1 0 0 51 660 1559 0 661 0 535 0 +.08 -.025 -.021 -1 0 0 .0025 0 0 1 14 6
61 1529 662 ?0 663 664 6 660 -663 663 0 663 24 81 1 662 1609 519 661 665 0 666 0
 667 14 663 1544 666 ?661 19 668 6 660 -661 661 661 19 24 15 664 1532 0 669 661
 670 17 669 0 664 669 669 0 636 447 0 0 -15 670 1533 0 671 661 0 17 671 0 670 67
1 671 0 446 442 0 0 -17 446 0 559 446 446 0 671 442 0 0 +15 559 1491 0 446 500 4
99 17 636 0 554 636 636 0 669 447 0 0 +15 554 1485 0 636 354 352 81 1 666 1608 5
19 663 672 0 673 662 674 14 19 1295 673 ?663 504 413 6 7 +0 0 663 504 24 15 668
 1542 0 641 663 675 17 641 0 668 641 641 0 676 634 0 0 +15 675 1543 0 677 663 0
 17 677 0 675 677 677 0 550 21 0 0 -17 550 0 543 550 550 0 677 21 0 0 +17 676 0
 564 676 676 0 641 634 0 0 -15 564 1497 0 676 407 405 81 1 673 1607 519 19 623 0
 678 666 679 14 504 1274 678 ?19 516 350 6 20 +0 0 19 516 24 81 1 678 1606 519 5
04 680 0 522 673 681 51 20 1286 0 504 525 7 0 +.032 -.04 -.01 1 0 0 .01 0 0 -1 5
1 525 1265 0 516 518 20 0 +.0025 -.01 -.01 -1 0 0 .01 0 0 1 81 1 680 1378 31 504
 0 678 520 682 683 81 1 522 1605 519 516 682 0 515 678 684 83 3 681 .61568627450
9804 .811764705882353 .929411764705882 81 1 682 1379 31 516 0 522 680 623 685 83
 3 684 .615686274509804 .811764705882353 .929411764705882 81 1 623 1380 31 19 0
 673 682 621 686 82 3 685 12 2 2 82 3 686 12 3 2 81 1 520 1377 31 514 0 515 376
 680 687 82 3 683 12 1 2 81 1 376 1376 31 374 0 0 362 520 688 82 3 687 12 0 2 81
 1 362 1375 31 390 0 0 358 376 689 82 3 688 12 27 1 82 3 689 12 26 1 83 3 679 .6
15686274509804 .811764705882353 .929411764705882 81 1 672 1581 31 663 0 666 545
 665 690 83 3 674 .615686274509804 .811764705882353 .929411764705882 81 1 545 15
80 31 537 0 539 617 672 691 81 1 665 1582 31 661 0 662 672 0 692 82 3 690 17 4 2
 82 3 692 17 5 2 82 3 691 17 3 2 83 3 667 .615686274509804 .811764705882353 .929
411764705882 82 3 656 10 6 2 31 642 1564 0 634 0 637 0 +0 -.025 -.021 -1 0 0 0 0
 1 .0025 31 637 1563 0 447 642 448 0 +.059 -.025 -.021 1 0 1387778780781446e-31
 1387778780781446e-31 0 -1 .0025 31 448 1562 0 442 637 449 0 +.064 -.025 -.021 -
1 0 0 0 0 1 .0025 83 3 631 .615686274509804 .811764705882353 .929411764705882 82
 3 625 12 4 2 82 3 620 17 2 2 79 255 15 616 SDL/TYSA_COLOUR83 3 602 .61568627450
9804 .811764705882353 .929411764705882 83 3 599 .615686274509804 .81176470588235
3 .929411764705882 83 3 594 .615686274509804 .811764705882353 .929411764705882 8
3 3 591 .615686274509804 .811764705882353 .929411764705882 81 1 422 1050 31 419
 0 0 426 389 693 82 3 585 11 28 1 82 3 693 11 27 1 17 185 0 548 226 276 182 512
 387 0 224 +17 512 0 494 288 227 154 185 387 0 0 -17 227 0 494 512 212 182 197 2
28 0 0 +17 62 0 35 37 52 59 582 336 0 395 +17 582 0 524 50 412 30 62 336 0 0 -15
 524 1254 0 582 516 0 17 50 0 524 70 582 54 42 51 0 0 -17 412 0 524 582 70 59 32
5 322 0 0 -17 70 0 524 412 50 67 58 329 0 325 -17 37 0 35 29 62 63 395 377 0 38
 -17 395 0 409 325 66 59 37 377 0 412 +17 177 0 342 423 189 174 436 439 0 440 -1
7 157 0 574 577 356 154 288 285 0 276 -83 3 576 .615686274509804 .81176470588235
3 .929411764705882 15 572 928 0 417 569 0 17 417 0 572 416 214 114 141 267 0 0 -
17 416 0 572 149 417 122 266 263 0 0 -17 214 0 572 417 149 138 205 215 0 0 -17 1
49 0 572 214 416 146 216 260 0 205 -17 216 0 47 49 206 122 149 260 0 416 +17 49
 0 47 42 216 54 125 378 0 50 -17 125 0 405 266 58 122 49 378 0 216 +83 3 547 .61
5686274509804 .811764705882353 .929411764705882 83 3 541 .615686274509804 .81176
4705882353 .929411764705882 83 3 533 .615686274509804 .811764705882353 .92941176
4705882 83 3 523 .615686274509804 .811764705882353 .929411764705882 79 9 458 BTI
/DetId82 3 455 10 16 1 81 1 438 735 31 380 0 0 240 450 694 82 3 453 10 13 1 81 1
 240 734 31 228 0 0 237 438 695 82 3 694 10 12 1 82 3 695 10 11 1 82 3 444 10 15
 1 82 3 428 11 26 1 81 1 379 1369 31 378 0 0 394 418 696 81 1 383 1371 31 219 0
 0 418 368 697 82 3 421 12 21 1 81 1 368 1372 31 349 0 0 383 361 698 82 3 697 12
 22 1 81 1 361 1373 31 385 0 0 368 358 699 82 3 698 12 23 1 82 3 699 12 24 1 81
 1 394 1368 31 377 0 0 398 379 700 82 3 696 12 20 1 81 1 398 1367 31 396 0 0 400
 394 701 82 3 700 12 19 1 81 1 400 1366 31 399 0 0 402 398 702 82 3 701 12 18 1
 82 3 702 12 17 1 81 1 25 1364 31 11 0 0 335 402 703 82 3 404 12 16 1 81 1 335 1
363 31 39 0 0 328 25 704 82 3 703 12 15 1 81 1 328 1362 31 326 0 0 321 335 705 8
2 3 704 12 14 1 81 1 321 1361 31 319 0 0 333 328 706 82 3 705 12 13 1 81 1 333 1
360 31 51 0 0 338 321 707 82 3 706 12 12 1 81 1 338 1359 31 336 0 0 331 333 708
 82 3 707 12 11 1 81 1 331 1358 31 329 0 0 324 338 709 82 3 708 12 10 1 81 1 324
 1357 31 322 0 0 339 331 710 82 3 709 12 9 1 82 3 710 12 8 1 82 3 363 12 25 1 81
 1 306 1355 31 304 0 0 315 339 711 82 3 341 12 7 1 81 1 315 1354 31 313 0 0 300
 306 712 82 3 711 12 6 1 81 1 300 1353 31 298 0 0 312 315 713 82 3 712 12 5 1 81
 1 312 1352 31 310 0 0 309 300 714 82 3 713 12 4 1 81 1 309 1351 31 307 0 0 318
 312 715 82 3 714 12 3 1 81 1 318 1350 31 316 0 0 33 309 716 82 3 715 12 2 1 81
 1 33 1349 31 301 0 0 28 318 717 82 3 716 12 1 1 82 3 717 12 0 1 81 1 172 732 31
 170 0 0 188 237 718 82 3 241 10 10 1 81 1 188 731 31 186 0 0 176 172 719 82 3 7
18 10 7 0 81 1 176 730 31 174 0 0 180 188 720 82 3 719 10 6 0 81 1 180 729 31 17
8 0 0 192 176 721 82 3 720 10 5 0 81 1 192 728 31 190 0 0 184 180 722 82 3 721 1
0 4 0 81 1 184 727 31 182 0 0 196 192 723 82 3 722 10 3 0 81 1 196 726 31 194 0
 0 199 184 724 82 3 723 10 2 0 82 3 724 10 1 0 81 1 201 708 31 1 0 725 0 199 726
 82 3 202 10 0 0 81 1 725 1583 727 1 201 14 0 0 728 82 3 726 6 0 3 80 1 727 729
 730 8038 0 0 0 0 0 0 0 0 0 TTTTTTTTTTTTTFTFT10 81 1 14 1584 729 1 725 2 0 0 731
 98 255 6 728 80 97 114 116 32 49 80 1 729 732 733 8017 0 0 0 0 0 0 0 0 0 TTTTTT
TTTTTTTFTFT3 84 255 6 731 Part 179 13 733 SDL/TYSA_NAME79 14 730 SDL/TYSA_UNAME8
1 1 45 1345 31 71 0 0 41 65 734 81 1 65 1346 31 63 0 0 45 32 735 82 3 734 12 12
 0 81 1 32 1347 31 43 0 0 65 28 736 82 3 735 12 13 0 82 3 736 12 14 0 82 3 46 12
 11 0 82 3 34 12 15 0 19 18 254 0 1 0 10 6 0 S0 74 4 CI16 index_map_offset0 0 1
 dCCZ20 16 5 0 0 665 725 14 2 662 0 0 0 0 0 0 0 0 0 0 0 0 0 0 0 80 1 13 519 737
 8040 0 0 0 0 3 5 0 0 0 TTTFFFFFFFFFFFFFF2 83 3 15 .615686274509804 .81176470588
2353 .929411764705882 79 17 737 SDL/TYSA_COLOUR_21 0 
